<svg width="59" height="104" viewBox="0 0 59 104" fill="none" xmlns="http://www.w3.org/2000/svg">
<path d="M31.0755 5.57609L52.3635 5.33191L33.1183 98.4865L11.0417 98.7396L31.0755 5.57609Z" fill="#009079"/>
<path d="M8.94216 34.3132L8.94216 34.3132C9.55916 33.403 10.024 33.1239 10.35 33.0535C10.6715 32.984 11.1295 33.0585 11.8827 33.5228C12.6331 33.9854 13.513 34.7316 14.6265 35.7401C14.9607 36.0427 15.3148 36.368 15.6889 36.7116C16.534 37.4878 17.4811 38.3576 18.53 39.2719C21.8748 42.1875 23.2851 43.6034 23.913 44.6488C24.4019 45.4628 24.4062 46.0033 24.4166 47.3008C24.418 47.478 24.4195 47.6694 24.4224 47.8775C24.4436 49.4074 24.4038 50.7391 24.1688 51.8237C23.9359 52.8983 23.5379 53.6077 22.937 54.0399C22.3312 54.4756 21.34 54.7583 19.6445 54.5856C17.9667 54.4147 15.7083 53.8076 12.6828 52.602C6.57601 48.3953 4.93597 40.2229 8.94216 34.3132Z" fill="#FFD25D" stroke="#6E2800" stroke-width="2"/>
<path d="M56.3559 39.2648L56.3559 39.2648C56.8675 40.298 56.8932 40.8748 56.792 41.2167C56.6948 41.5452 56.4039 41.9133 55.6269 42.3422C54.8499 42.7711 53.7571 43.1689 52.3149 43.6396C51.8823 43.7808 51.4197 43.9281 50.931 44.0837C49.8268 44.4353 48.5891 44.8295 47.2621 45.2915C43.031 46.7645 41.0835 47.2877 39.8482 47.3053C38.8823 47.3192 38.3949 47.0394 37.2338 46.3732C37.0757 46.2825 36.9052 46.1846 36.7192 46.0793C35.3472 45.3026 34.1817 44.5776 33.3323 43.8066C32.4904 43.0424 32.0506 42.3155 31.9634 41.5457C31.8757 40.7724 32.1199 39.7425 33.1082 38.3247C34.0868 36.9207 35.7358 35.2236 38.2889 33.148C45.0059 29.8863 53.044 32.5771 56.3559 39.2648Z" fill="#FFD25D" stroke="#6E2800" stroke-width="2"/>
<path d="M28.122 73.4274L28.122 73.4274C26.8847 73.4017 26.301 73.1574 26.0133 72.901C25.7548 72.6707 25.5602 72.2711 25.5371 71.43C25.5136 70.5783 25.6706 69.4662 25.9315 68.0092C26.0095 67.5738 26.0964 67.1092 26.1883 66.618C26.3963 65.5065 26.6297 64.2588 26.8428 62.9046C27.5219 58.5885 27.9775 56.6894 28.5548 55.6296C29.0088 54.7961 29.5097 54.501 30.706 53.7963C30.867 53.7014 31.0405 53.5992 31.2282 53.4872C32.637 52.6469 33.8287 51.9722 34.8886 51.5931C35.9362 51.2185 36.7166 51.1838 37.3691 51.4525C38.0326 51.7257 38.7756 52.3994 39.5455 53.911C40.3045 55.4012 41.0341 57.5978 41.736 60.7372C41.5271 67.9795 36.0268 73.592 28.122 73.4274Z" fill="#FFD25D" stroke="#6E2800" stroke-width="2"/>
<path d="M37.3218 47.9444C37.3218 51.5852 34.2787 54.5841 30.4655 54.5841C26.6523 54.5841 23.6092 51.5852 23.6092 47.9444C23.6092 44.3036 26.6523 41.3047 30.4655 41.3047C34.2787 41.3047 37.3218 44.3036 37.3218 47.9444Z" fill="#FFD25D" stroke="#6E2800" stroke-width="2"/>
<g filter="url(#filter0_f_1_32)">
<ellipse cx="30.4655" cy="47.9444" rx="2.33447" ry="2.41613" fill="#6E2800"/>
</g>
<path d="M56.5128 66.7965C56.5128 72.4316 51.9186 77.009 46.24 77.009C40.5614 77.009 35.9672 72.4316 35.9672 66.7965C35.9672 61.1614 40.5614 56.5841 46.24 56.5841C51.9186 56.5841 56.5128 61.1614 56.5128 66.7965Z" fill="#FFD25D" stroke="#6E2800" stroke-width="2"/>
<path d="M51.9201 66.9992C51.9201 70.828 49.3728 73.4337 46.2306 73.4337C43.0884 73.4337 40.3831 70.5973 40.569 66.9992C41.1056 64.6931 41.5093 63.3834 41.8331 62.8811C42.5465 62.2334 42.9621 62.1626 42.7452 63.1903C42.7207 63.3066 42.7615 63.4466 42.7205 63.5919C42.7492 63.7165 42.7065 63.8903 42.7341 64.038C42.9151 65.0056 43.0634 66.4072 43.2525 68.128C44.1576 69.6359 44.7421 70.4199 46.2306 71.2097C47.7499 70.3487 49.3656 68.1279 49.3656 68.1279C49.5721 66.0159 49.4524 64.275 49.5306 63.3495C49.5469 63.1566 49.5306 63.0888 49.5183 62.9C49.4969 62.7279 49.5159 62.7069 49.485 62.6322C49.1584 61.8439 49.9786 61.9773 50.4096 62.9737C50.7293 63.5395 51.1999 64.8122 51.9201 66.9992Z" fill="#6E2800"/>
<rect x="44.1345" y="72.0355" width="4.21099" height="4.63209" fill="#6E2800"/>
<defs>
<filter id="filter0_f_1_32" x="27.131" y="44.5283" width="6.66895" height="6.83228" filterUnits="userSpaceOnUse" color-interpolation-filters="sRGB">
<feFlood flood-opacity="0" result="BackgroundImageFix"/>
<feBlend mode="normal" in="SourceGraphic" in2="BackgroundImageFix" result="shape"/>
<feGaussianBlur stdDeviation="0.5" result="effect1_foregroundBlur_1_32"/>
</filter>
</defs>
</svg>
