<svg width="25" height="21" viewBox="0 0 25 21" fill="none" xmlns="http://www.w3.org/2000/svg">
<path fill-rule="evenodd" clip-rule="evenodd" d="M20.7233 1.34596C21.1442 0.92701 21.7125 0.691226 22.3052 0.689584C22.8979 0.687942 23.4675 0.920575 23.8907 1.33719C24.3139 1.7538 24.5569 2.32092 24.567 2.91594C24.5771 3.51096 24.3535 4.08606 23.9447 4.51691L11.9373 19.5865C11.7309 19.8096 11.4819 19.9887 11.205 20.113C10.9281 20.2374 10.6291 20.3043 10.3258 20.31C10.0226 20.3156 9.72132 20.2598 9.44004 20.1459C9.15877 20.0319 8.90326 19.8622 8.68881 19.6469L0.733016 11.6561C0.511377 11.4487 0.333606 11.1987 0.210307 10.9208C0.0870093 10.643 0.02071 10.3431 0.0153657 10.039C0.0100214 9.73485 0.0657417 9.43276 0.179201 9.15073C0.292661 8.86871 0.461536 8.61251 0.675752 8.39743C0.889968 8.18236 1.14514 8.0128 1.42604 7.89889C1.70693 7.78497 2.00781 7.72903 2.31071 7.73439C2.61361 7.73976 2.91233 7.80633 3.18905 7.93012C3.46577 8.05391 3.71482 8.2324 3.92135 8.45493L10.2198 14.7757L20.6661 1.4124C20.6848 1.38901 20.7048 1.36682 20.7263 1.34596H20.7233Z" fill="#FFD25D"/>
</svg>
