<svg width="52" height="104" viewBox="0 0 52 104" fill="none" xmlns="http://www.w3.org/2000/svg">
<path d="M25.3108 5.43638L46.5989 5.1922L27.3537 98.3468L5.27713 98.5999L25.3108 5.43638Z" fill="#009079"/>
<path d="M46.182 51.9742C46.182 62.5618 37.3118 71.1987 26.3022 71.1987C15.2926 71.1987 6.42242 62.5618 6.42242 51.9742C6.42242 41.3867 15.2926 32.7498 26.3022 32.7498C37.3118 32.7498 46.182 41.3867 46.182 51.9742Z" fill="#FFD25D" stroke="#6E2800" stroke-width="2"/>
<path d="M41.5823 51.9742C41.5823 60.0497 34.7766 66.6591 26.3022 66.6591C17.8278 66.6591 11.0221 60.0497 11.0221 51.9742C11.0221 43.8988 17.8278 37.2894 26.3022 37.2894C34.7766 37.2894 41.5823 43.8988 41.5823 51.9742Z" fill="#FFD25D" stroke="#6E2800" stroke-width="2"/>
<path d="M47.8508 70.2083C47.8508 75.1239 43.9084 79.0916 39.0663 79.0916C34.2243 79.0916 30.2819 75.1239 30.2819 70.2083C30.2819 65.2927 34.2243 61.325 39.0663 61.325C43.9084 61.325 47.8508 65.2927 47.8508 70.2083Z" fill="#FFD25D" stroke="#6E2800" stroke-width="2"/>
<rect x="25.5699" y="25.8233" width="1.46465" height="18.618" fill="#6E2800"/>
<rect x="25.5699" y="59.3632" width="1.46465" height="17.5789" fill="#6E2800"/>
<rect x="51.4576" y="51.1339" width="1.37838" height="17.492" transform="rotate(90.7162 51.4576 51.1339)" fill="#6E2800"/>
<rect x="19.5139" y="51.0476" width="1.46465" height="19.1227" transform="rotate(90.7162 19.5139 51.0476)" fill="#6E2800"/>
<path d="M39.6756 70.2658C38.9481 69.2958 38.4388 68.6168 37.6871 67.8165C36.1791 67.8165 34.5102 66.9192 35.0922 71.7451C35.0922 73.1504 36.5291 72.9054 38.0371 72.9054C39.5451 72.9054 39.6756 71.6711 39.6756 70.2658Z" fill="#6E2800"/>
<path d="M44.0651 66.6581L44.2742 67.1844L36.8578 69.8137L36.6722 69.276L44.0651 66.6581Z" fill="#6E2800"/>
<rect x="35.2035" y="72.8814" width="7.59926" height="0.885568" fill="#6E2800"/>
</svg>
