<svg width="60" height="104" viewBox="0 0 60 104" fill="none" xmlns="http://www.w3.org/2000/svg">
<path d="M29.1171 5.48191L50.4052 5.23773L31.16 98.3924L9.08341 98.6454L29.1171 5.48191Z" fill="#009079"/>
<path d="M49.9883 52.0198C49.9883 62.6074 41.1181 71.2443 30.1085 71.2443C19.0989 71.2443 10.2287 62.6074 10.2287 52.0198C10.2287 41.4322 19.0989 32.7953 30.1085 32.7953C41.1181 32.7953 49.9883 41.4322 49.9883 52.0198Z" fill="#FFD25D" stroke="#6E2800" stroke-width="2"/>
<path d="M45.3886 52.0198C45.3886 60.0952 38.5829 66.7047 30.1085 66.7047C21.6341 66.7047 14.8284 60.0952 14.8284 52.0198C14.8284 43.9443 21.6341 37.3349 30.1085 37.3349C38.5829 37.3349 45.3886 43.9443 45.3886 52.0198Z" fill="#FFD25D" stroke="#6E2800" stroke-width="2"/>
<path d="M34.7795 51.7808C34.7795 54.1904 32.7287 56.2156 30.1086 56.2156C27.4884 56.2156 25.4376 54.1904 25.4376 51.7808C25.4376 49.3711 27.4884 47.3459 30.1086 47.3459C32.7287 47.3459 34.7795 49.3711 34.7795 51.7808Z" fill="#6E2800" stroke="#6E2800" stroke-width="2"/>
<rect x="18.5452" y="28.2627" width="1.797" height="21.6989" transform="rotate(-23.0958 18.5452 28.2627)" fill="#6E2800"/>
<rect x="46.9243" y="30.8088" width="1.797" height="21.6682" transform="rotate(39.6546 46.9243 30.8088)" fill="#6E2800"/>
<rect x="58.3167" y="52.1516" width="1.797" height="23.8517" transform="rotate(90.3167 58.3167 52.1516)" fill="#6E2800"/>
<rect x="42.8486" y="76.3965" width="1.797" height="24.4968" transform="rotate(155.987 42.8486 76.3965)" fill="#6E2800"/>
<rect x="14.3628" y="71.4412" width="1.797" height="20.5104" transform="rotate(-137.855 14.3628 71.4412)" fill="#6E2800"/>
<rect x="1.43939" y="53.9631" width="1.797" height="25.8246" transform="rotate(-90.6058 1.43939 53.9631)" fill="#6E2800"/>
<ellipse cx="19.6226" cy="28.9404" rx="1.84813" ry="3.6513" transform="rotate(-24.6994 19.6226 28.9404)" fill="#6E2800"/>
<ellipse cx="46.9817" cy="32.2212" rx="1.91595" ry="3.77435" transform="rotate(40.3062 46.9817 32.2212)" fill="#6E2800"/>
<ellipse cx="56.2684" cy="52.8958" rx="1.6429" ry="3.54532" transform="rotate(88.6846 56.2684 52.8958)" fill="#6E2800"/>
<ellipse cx="40.977" cy="74.7659" rx="1.82641" ry="3.57893" transform="rotate(157.358 40.977 74.7659)" fill="#6E2800"/>
<ellipse cx="13.4388" cy="71.1111" rx="1.80542" ry="3.72714" transform="rotate(-134.077 13.4388 71.1111)" fill="#6E2800"/>
<ellipse cx="4.58083" cy="52.8972" rx="1.72241" ry="3.83007" transform="rotate(-90.38 4.58083 52.8972)" fill="#6E2800"/>
<path d="M50.1336 72.2443C50.1336 76.4507 46.7437 79.8514 42.5736 79.8514C38.4034 79.8514 35.0135 76.4507 35.0135 72.2443C35.0135 68.0378 38.4034 64.6372 42.5736 64.6372C46.7437 64.6372 50.1336 68.0378 50.1336 72.2443Z" fill="#FFD25D" stroke="#6E2800" stroke-width="2"/>
<path d="M44.3992 74.4975C44.0421 74.4975 43.8876 74.3923 43.6541 74.2333C43.3841 74.0495 43.0485 73.8208 42.4122 73.8208C41.7764 73.8208 41.4408 74.0495 41.1712 74.2336C40.938 74.3923 40.7839 74.4975 40.4269 74.4975C40.0707 74.4975 39.9166 74.3923 39.6835 74.2336C39.4138 74.0495 39.079 73.8208 38.4432 73.8208V74.4975C38.7998 74.4975 38.9539 74.6027 39.187 74.7614C39.4567 74.9455 39.7919 75.1742 40.4269 75.1742C41.0627 75.1742 41.3979 74.9455 41.6676 74.7617C41.9011 74.6027 42.0552 74.4975 42.4122 74.4975C42.7697 74.4975 42.9329 74.6085 43.1581 74.7617C43.4277 74.9455 43.7633 75.1742 44.3992 75.1742C45.035 75.1742 45.3706 74.9455 45.6402 74.7617C45.8654 74.6085 46.0286 74.4975 46.3861 74.4975V73.8208C45.7499 73.8208 45.4143 74.0495 45.1442 74.2333C44.9107 74.3923 44.7562 74.4975 44.3992 74.4975ZM40.0318 70.6066L39.2375 70.7757L40.0318 73.4825H40.4269C41.0627 73.4825 41.3979 73.2538 41.6676 73.07C41.9011 72.911 42.0552 72.8058 42.4122 72.8058C42.7697 72.8058 42.9329 72.9168 43.1581 73.07C43.4277 73.2538 43.7633 73.4825 44.3992 73.4825H44.7975L44.8082 73.4463L45.5918 70.7757L44.7975 70.6066V69.4227C44.7975 69.3445 44.7657 69.2686 44.7075 69.2081C44.6493 69.1476 44.5683 69.1061 44.4782 69.0908L42.8118 68.8069V68.4073H42.0175V68.8069L40.3511 69.0908C40.261 69.1061 40.18 69.1476 40.1217 69.2081C40.0635 69.2686 40.0317 69.3445 40.0318 69.4227V70.6066ZM40.826 69.6995L42.4146 69.4288L44.0032 69.6995V70.4374L42.4146 70.0991L40.826 70.4374V69.6995Z" fill="#6E2800"/>
</svg>
